<?xml version="1.0" encoding="UTF-8" standalone="no"?>
<!DOCTYPE svg PUBLIC "-//W3C//DTD SVG 1.1//EN" "http://www.w3.org/Graphics/SVG/1.1/DTD/svg11.dtd">
<svg xmlns="http://www.w3.org/2000/svg" version="1.1" viewBox="0.00 0.00 512.00 512.00">
<path fill="#666" d="
  M 227.54 0.00
  L 232.49 0.00
  Q 245.41 1.40 252.44 11.06
  C 257.26 17.67 258.61 25.40 258.57 34.06
  Q 258.45 65.15 258.55 102.77
  Q 258.55 103.62 259.29 103.20
  Q 261.39 102.00 263.78 101.33
  C 277.87 97.33 291.71 102.99 297.80 116.49
  Q 298.05 117.03 298.54 116.71
  Q 305.15 112.51 311.01 112.01
  Q 331.37 110.28 340.29 128.38
  A 0.33 0.33 0.0 0 0 340.76 128.51
  C 357.75 117.52 379.85 125.48 384.49 145.87
  Q 385.58 150.70 385.57 157.40
  Q 385.50 189.95 385.58 218.40
  A 0.46 0.46 0.0 0 1 385.12 218.86
  L 371.22 218.86
  Q 370.55 218.86 370.55 218.19
  Q 370.54 188.20 370.56 156.43
  C 370.57 151.43 369.89 146.47 366.67 142.65
  C 363.48 138.88 357.89 137.80 353.32 139.11
  C 346.45 141.07 343.14 146.72 343.20 153.72
  Q 343.29 166.06 343.23 176.75
  Q 343.23 177.26 342.73 177.26
  L 328.79 177.26
  Q 328.24 177.26 328.24 176.71
  Q 328.23 159.85 328.25 143.69
  C 328.26 136.79 325.85 129.20 318.49 127.32
  C 309.19 124.94 300.95 131.39 300.92 141.04
  Q 300.85 159.76 300.91 176.60
  Q 300.92 177.26 300.26 177.26
  L 286.48 177.26
  Q 285.89 177.26 285.89 176.66
  Q 285.91 156.26 285.89 135.79
  C 285.88 130.61 285.92 126.41 283.74 121.79
  C 278.79 111.36 263.83 113.78 259.67 123.38
  Q 258.43 126.25 258.46 134.35
  Q 258.55 159.24 258.49 184.22
  Q 258.49 184.74 257.96 184.74
  L 243.81 184.74
  Q 243.52 184.74 243.52 184.45
  Q 243.53 106.33 243.47 31.00
  C 243.47 23.58 240.21 16.19 232.06 15.17
  Q 225.27 14.32 220.51 18.81
  C 216.15 22.92 216.10 27.67 216.15 33.26
  Q 216.31 49.41 216.20 65.58
  Q 216.19 66.22 215.56 66.22
  L 201.75 66.22
  Q 201.21 66.22 201.21 65.68
  Q 201.27 48.04 201.19 30.01
  C 201.11 14.08 211.69 1.81 227.54 0.00
  Z"
/>
<path fill="#666" d="
  M 201.22 189.44
  L 201.22 81.75
  Q 201.22 81.22 201.75 81.22
  L 215.59 81.22
  Q 216.22 81.22 216.22 81.85
  L 216.22 239.75
  Q 216.22 240.48 215.49 240.48
  L 201.73 240.48
  A 0.51 0.50 0.0 0 1 201.22 239.98
  L 201.22 220.20
  Q 201.22 219.63 200.93 219.15
  Q 186.03 194.23 170.28 168.13
  Q 166.98 162.67 161.57 163.22
  C 155.43 163.84 149.74 166.77 144.40 169.78
  A 0.59 0.58 67.9 0 0 144.13 170.43
  L 172.74 272.90
  A 1.72 1.64 13.1 0 0 173.29 273.74
  L 216.36 309.20
  Q 216.76 309.52 216.76 310.04
  L 216.76 370.10
  A 0.59 0.59 0.0 0 0 217.35 370.69
  L 276.47 370.69
  A 0.54 0.53 -0.0 0 1 277.01 371.22
  L 277.01 385.09
  Q 277.01 385.69 276.41 385.69
  L 202.47 385.69
  Q 201.75 385.69 201.75 384.97
  L 201.75 317.01
  Q 201.75 316.60 201.43 316.33
  L 160.12 282.34
  Q 159.70 281.99 159.55 281.46
  L 126.60 163.40
  Q 126.45 162.85 126.94 162.55
  Q 136.91 156.49 145.67 152.30
  C 156.19 147.28 168.40 146.02 177.38 153.56
  Q 181.40 156.93 187.04 166.70
  Q 193.69 178.24 200.75 189.58
  Q 201.22 190.33 201.22 189.44
  Z"
/>
<rect fill="#666" x="-7.51" y="-7.49" transform="translate(348.08,207.26) rotate(0.2)" width="15.02" height="14.98" rx="0.42"/>
<rect fill="#666" x="340.55" y="229.75" width="15.00" height="15.00" rx="0.38"/>
<path fill="#666" d="
  M 352.26 319.76
  L 352.26 305.52
  A 0.38 0.38 0.0 0 0 351.88 305.14
  L 322.64 305.14
  A 0.38 0.38 0.0 0 1 322.26 304.76
  L 322.26 290.52
  A 0.38 0.38 0.0 0 1 322.64 290.14
  L 355.65 290.14
  A 0.38 0.38 0.0 0 0 355.96 289.98
  L 370.47 269.15
  A 0.38 0.38 0.0 0 0 370.54 268.93
  L 370.54 234.24
  A 0.38 0.38 0.0 0 1 370.92 233.86
  L 385.16 233.86
  A 0.38 0.38 0.0 0 1 385.54 234.24
  L 385.54 273.65
  A 0.38 0.38 0.0 0 1 385.47 273.87
  L 367.33 299.90
  A 0.38 0.38 0.0 0 0 367.26 300.12
  L 367.26 385.31
  A 0.38 0.38 0.0 0 1 366.88 385.69
  L 292.39 385.69
  A 0.38 0.38 0.0 0 1 292.01 385.31
  L 292.00 371.07
  A 0.38 0.38 0.0 0 1 292.38 370.69
  L 351.88 370.69
  A 0.38 0.38 0.0 0 0 352.26 370.31
  L 352.26 335.52
  A 0.38 0.38 0.0 0 0 351.88 335.14
  L 337.64 335.14
  A 0.38 0.38 0.0 0 1 337.26 334.76
  L 337.26 320.52
  A 0.38 0.38 0.0 0 1 337.64 320.14
  L 351.88 320.14
  A 0.38 0.38 0.0 0 0 352.26 319.76
  Z"
/>
<rect fill="#666" x="292.26" y="290.14" width="15.00" height="15.00" rx="0.36"/>
<rect fill="#666" x="307.26" y="320.14" width="15.00" height="15.00" rx="0.36"/>
<rect fill="#666" x="231.75" y="340.65" width="15.00" height="15.00" rx="0.39"/>
<path fill="#666" d="
  M 317.21 512.00
  L 312.46 512.00
  Q 295.35 510.57 284.82 497.35
  A 0.38 0.38 0.0 0 0 284.22 497.35
  Q 273.63 510.63 256.44 512.00
  L 251.96 512.00
  Q 238.98 510.76 230.07 502.93
  C 217.51 491.90 213.27 473.78 220.60 458.59
  Q 228.41 442.43 246.52 437.82
  Q 247.01 437.70 247.01 437.20
  L 247.01 401.21
  Q 247.01 400.69 247.53 400.69
  L 261.47 400.69
  Q 262.01 400.69 262.01 401.22
  L 262.01 451.46
  Q 262.01 452.00 261.47 452.01
  C 257.81 452.09 253.77 451.63 250.28 452.43
  C 235.68 455.77 227.67 470.64 234.41 484.48
  C 240.22 496.42 255.73 500.85 266.97 493.19
  Q 276.33 486.80 277.05 474.90
  A 0.41 0.41 0.0 0 1 277.46 474.52
  L 291.46 474.52
  Q 291.94 474.52 291.97 475.00
  C 293.20 492.34 309.78 501.96 325.49 494.17
  Q 326.01 493.92 326.30 494.42
  L 333.37 506.31
  Q 333.66 506.80 333.16 507.07
  Q 325.63 511.15 317.21 512.00
  Z"
/>
<path fill="#666" d="
  M 322.66 437.87
  Q 339.38 442.07 347.23 456.36
  Q 356.90 473.99 347.15 493.11
  Q 346.87 493.66 346.35 493.35
  L 334.45 486.30
  Q 333.87 485.95 334.18 485.34
  C 341.27 471.67 334.27 456.58 319.72 452.64
  C 315.98 451.63 311.53 452.03 307.56 452.01
  Q 307.01 452.01 307.01 451.46
  L 307.01 401.22
  Q 307.01 400.69 307.54 400.69
  L 321.47 400.69
  Q 322.01 400.69 322.01 401.22
  L 322.01 437.03
  Q 322.01 437.71 322.66 437.87
  Z"
/>
<rect fill="#666" x="277.01" y="414.50" width="15.00" height="15.00" rx="0.38"/>
<rect fill="#666" x="277.01" y="444.50" width="15.00" height="15.00" rx="0.38"/>
</svg>
